# xmcd
#
# Track frame offsets:
#	150
#	1499
#	17189
#	18492
#	33726
#	45987
#	48797
#	57666
#	61269
#	69363
#	85496
#	98304
#	112548
#	113640
#	125588
#	126398
#	140937
#	142079
#	149425
#	159070
#	171138
#	183093
#	189594
#	228192
#	238026
#	253616
#	269796
#	287907
#	300651
#
# Disc length: 4131 seconds
#
# Revision: 1
# Processed by: cddbd v1.5.2PL0 Copyright (c) Steve Scherf et al.
# Submitted via: EZCDAudioConverter 1.3.4.1
#
DISCID=9b10211d
DTITLE=Instant Orange - Instant Orange (1973)
DYEAR=1973
DGENRE=
TTITLE0=Introduction
TTITLE1=The Visionary (Reactive)
TTITLE2=Whole Lot Better (Part 1)
TTITLE3=Whole Lot Better (Part 2)
TTITLE4=Silent Green
TTITLE5=Seems Like Everything (Part 1)
TTITLE6=Seems Like Everything (Part 2)
TTITLE7=Cycle 2 (Part 1)
TTITLE8=Cycle 2 (Part 2)
TTITLE9=Reflecting Emotions
TTITLE10=Genesis II
TTITLE11=Cactus Gardens
TTITLE12=Ballad Of The RTD (Part 1)
TTITLE13=Ballad Of The RTD (Part 2)
TTITLE14=Prairie To The Sea (Part 1)
TTITLE15=Prairie To The Sea (Part 2)
TTITLE16=Coming Of The Day (Part 1)
TTITLE17=Coming Of The Day (Part 2)
TTITLE18=You I'll Be Following
TTITLE19=Reflecting Emotions
TTITLE20=Suburban Pictorial Abstract
TTITLE21=20 To 6 Bianchi Boogie
TTITLE22=Theme From Beat Whistle
TTITLE23=View From Ghiradelli Square
TTITLE24=Paper Lay
TTITLE25=Skyline
TTITLE26=Plight Of The Mary Celeste
TTITLE27=Genesis II [Non LP Version]
TTITLE28=Same Old Thing
EXTD=
EXTT0=
EXTT1=
EXTT2=
EXTT3=
EXTT4=
EXTT5=
EXTT6=
EXTT7=
EXTT8=
EXTT9=
EXTT10=
EXTT11=
EXTT12=
EXTT13=
EXTT14=
EXTT15=
EXTT16=
EXTT17=
EXTT18=
EXTT19=
EXTT20=
EXTT21=
EXTT22=
EXTT23=
EXTT24=
EXTT25=
EXTT26=
EXTT27=
EXTT28=
PLAYORDER=
